inDegrees=yes
name=ik_S56_A04_T01
DataType=double
version=3
OpenSimVersion=4.3-2021-08-27-4bc7ad9
endheader
time	pelvis_tilt	pelvis_list	pelvis_rotation	pelvis_tx	pelvis_ty	pelvis_tz	hip_flexion_r	hip_adduction_r	hip_rotation_r	knee_angle_r	knee_angle_r_beta	ankle_angle_r	subtalar_angle_r	mtp_angle_r	hip_flexion_l	hip_adduction_l	hip_rotation_l	knee_angle_l	knee_angle_l_beta	ankle_angle_l	subtalar_angle_l	mtp_angle_l	lumbar_extension	lumbar_bending	lumbar_rotation	arm_flex_r	arm_add_r	arm_rot_r	elbow_flex_r	pro_sup_r	wrist_flex_r	wrist_dev_r	arm_flex_l	arm_add_l	arm_rot_l	elbow_flex_l	pro_sup_l	wrist_flex_l	wrist_dev_l
13.09999999999981	-5.126714654327396	-1.273217602152929	42.0074398259393	0	0.9399999999999999	0	22.25321623460263	-8.720899095734586	-2.103930926514336	34.44048429525009	0.6010998469335128	0	0	0	25.38153231798722	5.754912767003791	-1.063194408968696	35.01168144018919	0.6110691177906914	0	0	0	0	0	0	21.7705816816403	-21.7705816816403	3.425765146327544	64.68931115184078	86.57423504929987	0	0	21.7705816816403	-21.7705816816403	3.425765146327544	64.68931115184078	86.57423504900632	0	0
13.11999999999981	-5.354399237346963	-1.32277455545509	41.91210000811957	0	0.9399999999999999	0	23.46733955172304	-8.904997232955893	-1.401798784253567	35.84553492173817	0.625622606522939	0	0	0	26.62284619206597	6.034938878559231	-1.165592102129548	36.18891930844752	0.6316157946709585	0	0	0	0	0	0	21.77705516234199	-21.77705516234199	3.426621895430392	64.7008847177392	86.57337830024406	0	0	21.77705516234199	-21.77705516234199	3.426621895430392	64.7008847177392	86.57337829995068	0	0
13.13999999999981	-5.749472555343668	-1.401585627090546	41.70919030123954	0	0.9399999999999999	0	23.86042046659611	-9.016832194407886	-1.090761973730513	36.27452705200241	0.6331099316611943	0	0	0	28.20155454277581	6.133651356318235	-1.353710908448193	38.0268427768959	0.6636936105950568	0	0	0	0	0	0	21.78705170649149	-21.78705170649149	3.427940012940108	64.71867937990918	86.57206018280668	0	0	21.78705170649149	-21.78705170649149	3.427940012940108	64.71867937990918	86.5720601825135	0	0
13.15999999999981	-6.058737811370807	-1.439219481047233	41.42564257098373	0	0.9399999999999999	0	26.31326612991221	-9.058845982794809	0.1934259460291923	38.70140889909049	0.6754670104497629	0	0	0	29.824422940327	6.142651994523749	-1.451629024181335	39.85930145811314	0.695676047989051	0	0	0	0	0	0	21.79597738836449	-21.79597738836449	3.429119970604309	64.73461395334762	86.57088022520722	0	0	21.79597738836449	-21.79597738836449	3.429119970604309	64.73461395334762	86.57088022491432	0	0
13.17999999999981	-6.316229648948725	-1.435368608169578	41.16285400514803	0	0.9399999999999999	0	26.55168539144335	-9.141819112380748	0.5199067708082412	39.28147229923097	0.6855910266525276	0	0	0	31.28176916714292	6.280887620220676	-1.552430503042382	41.53308334366448	0.7248890528521608	0	0	0	0	0	0	21.80583688965475	-21.80583688965475	3.430422750596465	64.75220488975748	86.56957744528655	0	0	21.80583688965475	-21.80583688965475	3.430422750596465	64.75220488975748	86.56957744499393	0	0
13.19999999999981	-6.584777198254761	-1.420452566152927	40.84959700254387	0	0.9399999999999999	0	28.92701703534533	-8.96970607007556	1.26795781273449	42.37348823856708	0.7395568853180879	0	0	0	32.59818175318953	6.430484188120204	-1.974282852324897	43.13829392340835	0.7529052626565382	0	0	0	0	0	0	21.81443707375309	-21.81443707375309	3.43155789198248	64.76752886695017	86.56844230396275	0	0	21.81443707375309	-21.81443707375309	3.43155789198248	64.76752886695017	86.56844230367032	0	0
13.21999999999981	-6.891976300407554	-1.490595510584423	40.62617067729476	0	0.9399999999999999	0	30.3152587965899	-9.010204118009771	1.806484352981586	44.13294128524371	0.7702651340168407	0	0	0	33.95776460622523	6.627927346144684	-2.318530681747296	44.7347165468871	0.7807680936895681	0	0	0	0	0	0	21.81992991405321	-21.81992991405321	3.432281497529809	64.77729453464951	86.56771869845508	0	0	21.81992991405321	-21.81992991405321	3.432281497529809	64.77729453464951	86.56771869816281	0	0
13.23999999999981	-7.192804452437916	-1.623115641401317	40.36201792552677	0	0.9399999999999999	0	31.67193236375618	-9.085805049452276	2.377126391190464	45.71985498966009	0.7979620031039266	0	0	0	35.41511353041192	6.710854080179947	-2.580567919864828	46.12149956554325	0.8049720233758639	0	0	0	0	0	0	21.82609403550278	-21.82609403550278	3.433094671039512	64.78827077980756	86.56690552499001	0	0	21.82609403550278	-21.82609403550278	3.433094671039512	64.78827077980756	86.56690552469784	0	0
13.25999999999981	-7.311914013933595	-1.671523615319373	40.23753759449389	0	0.9399999999999999	0	31.82022247962884	-9.03815518737156	2.516444517041136	46.42086764287701	0.810196982000703	0	0	0	36.7028197189646	6.791632589890052	-2.574581120416432	47.89993785899695	0.8360116271401801	0	0	0	0	0	0	21.83453322840216	-21.83453322840216	3.43420617229871	64.80326899194375	86.5657940237918	0	0	21.83453322840216	-21.83453322840216	3.43420617229871	64.80326899194375	86.56579402349979	0	0
13.27999999999981	-7.402024750316944	-1.689785148942817	39.9164698519626	0	0.9399999999999999	0	32.89944783175802	-8.962362790133584	2.924558418751677	47.80268156208114	0.8343141845407021	0	0	0	36.81352959697579	6.621996659646955	-2.868257697492304	48.48852153556497	0.8462843502197854	0	0	0	0	0	0	21.84343064582195	-21.84343064582195	3.435376924019996	64.8190637098467	86.56462327213471	0	0	21.84343064582195	-21.84343064582195	3.435376924019996	64.8190637098467	86.56462327184292	0	0
13.29999999999981	-7.250576576494436	-1.602787017575775	39.74806214719127	0	0.9399999999999999	0	32.75114819698531	-8.880889886551731	2.98142015522917	48.25677845783954	0.8422396704947716	0	0	0	37.74798582041144	6.551962970945811	-2.964674834869294	50.13568652712391	0.8750328026460735	0	0	0	0	0	0	21.84775738193899	-21.84775738193899	3.435946253850038	64.82674460947737	86.56405394233583	0	0	21.84775738193899	-21.84775738193899	3.435946253850038	64.82674460947737	86.56405394204417	0	0
13.3199999999998	-7.039387910423118	-1.41640536435082	39.66881374651046	0	0.9399999999999999	0	34.36561455257159	-9.229389128351249	3.612201898969679	50.39338972266864	0.87953057190124	0	0	0	39.56875107772544	6.762057517063227	-2.835929967562352	52.82542564396837	0.9219776062546938	0	0	0	0	0	0	21.99507027547816	-21.99507027547816	3.452576178645515	65.04579554731797	86.54742401843063	0	0	21.99507027547816	-21.99507027547816	3.452576178645515	65.04579554731797	86.54742401814208	0	0
